HIERARCHY
ROOT hip
{
	OFFSET 0.000000 0.000000 0.000000 
	CHANNELS 6 Xposition Yposition Zposition Xrotation Zrotation Yrotation
	JOINT abdomen
	{
		OFFSET 0.000000 3.402643 0.000000 
		CHANNELS 3 Xrotation Zrotation Yrotation
		JOINT chest
		{
			OFFSET 0.000000 8.438565 -0.680529 
			CHANNELS 3 Xrotation Zrotation Yrotation
			JOINT neck
			{
				OFFSET 0.000000 10.207942 -0.272212 
				CHANNELS 3 Xrotation Zrotation Yrotation
				JOINT head
				{
					OFFSET 0.000000 3.130431 0.000000 
					CHANNELS 3 Xrotation Zrotation Yrotation
					End Site
					{
						OFFSET 0.000000 3.130435 0.000000 
					}
				}
			}
			JOINT lCollar
			{
				OFFSET 3.470700 6.669187 -0.816635 
				CHANNELS 3 Yrotation Zrotation Xrotation
				JOINT lShldr
				{
					OFFSET 3.198488 0.000000 0.000000 
					CHANNELS 3 Zrotation Yrotation Xrotation
					JOINT lForeArm
					{
						OFFSET 10.139888 0.000000 0.000000 
						CHANNELS 3 Yrotation Zrotation Xrotation
						JOINT lHand
						{
							OFFSET 8.370511 0.000000 0.000000 
							CHANNELS 3 Zrotation Yrotation Xrotation
							End Site
							{
								OFFSET 4.083176 0.000000 0.000000 
							}
						}
					}
				}
			}
			JOINT rCollar
			{
				OFFSET -3.470700 6.669187 -0.816635 
				CHANNELS 3 Yrotation Zrotation Xrotation
				JOINT rShldr
				{
					OFFSET -3.198488 0.000000 0.000000 
					CHANNELS 3 Zrotation Yrotation Xrotation
					JOINT rForeArm
					{
						OFFSET -10.139888 0.000000 0.000000 
						CHANNELS 3 Yrotation Zrotation Xrotation
						JOINT rHand
						{
							OFFSET -8.370511 0.000000 0.000000 
							CHANNELS 3 Zrotation Yrotation Xrotation
							End Site
							{
								OFFSET -4.083176 0.000000 0.000000 
							}
						}
					}
				}
			}
		}
	}
	JOINT lThigh
	{
		OFFSET 5.308129 -1.633274 1.361059 
		CHANNELS 3 Xrotation Zrotation Yrotation
		JOINT lShin
		{
			OFFSET -2.041588 -20.007561 0.000000 
			CHANNELS 3 Xrotation Zrotation Yrotation
			JOINT lFoot
			{
				OFFSET 0.000000 -19.190928 -1.224953 
				CHANNELS 3 Xrotation Yrotation Zrotation
				End Site
				{
					OFFSET 0.000000 -2.449906 4.627600 
				}
			}
		}
	}
	JOINT rThigh
	{
		OFFSET -5.308129 -1.633274 1.361059 
		CHANNELS 3 Xrotation Zrotation Yrotation
		JOINT rShin
		{
			OFFSET 2.041588 -20.007561 0.000000 
			CHANNELS 3 Xrotation Zrotation Yrotation
			JOINT rFoot
			{
				OFFSET 0.000000 -19.190928 -1.224953 
				CHANNELS 3 Xrotation Yrotation Zrotation
				End Site
				{
					OFFSET 0.000000 -2.449906 4.627600 
				}
			}
		}
	}
}
MOTION
Frames: 20
Frame Time: 0.011111
-4.795920 53.408157 -86.862984 2.341259 1.325172 6.055352 33.799980 -4.585729 -6.102783 -38.332417 7.677139 -1.744106 -11.458549 -4.952879 -5.417584 23.882843 10.095612 -10.192099 4.570630 -11.838743 2.144267 -66.126068 -25.762951 21.875853 -49.891594 7.676407 8.111052 8.524705 12.647240 -44.925182 -5.057420 16.551065 2.193941 56.284710 18.144823 26.754087 48.102791 -7.249554 7.405591 -8.534408 -12.637552 36.331890 -17.366810 9.117436 3.048502 71.204041 -1.374481 -8.984813 3.427678 3.865235 -3.116600 -9.896876 -1.201974 11.582052 29.112879 5.388189 4.730852 -22.706026 -6.340223 0.052131 
-4.732574 53.456837 -86.480927 2.140729 1.391899 5.104573 33.904724 -4.897388 -5.085064 -37.760769 7.330701 -1.366114 -12.705181 -4.989170 -5.438327 24.738564 10.065645 -10.288614 4.570630 -11.838743 2.144267 -66.164345 -26.406565 21.932064 -49.974335 7.691500 8.142838 8.524705 12.647240 -44.993538 -5.057420 16.551065 2.193941 56.254658 19.045944 26.756475 48.101868 -7.243033 7.398379 -8.534408 -12.637552 36.322124 -17.587303 9.169717 3.970012 71.273315 -1.383513 -8.967211 2.131281 3.383058 -3.083168 -8.898388 -1.299925 11.807831 28.401602 5.427566 4.637542 -22.269377 -5.814818 0.328362 
-4.729574 53.472504 -86.164185 2.092461 1.332919 4.964255 33.807323 -4.876153 -4.804981 -37.483372 7.271217 -1.266879 -12.943211 -5.205410 -5.390095 24.983644 10.249871 -10.239987 4.570630 -11.838743 2.144267 -66.293037 -26.723116 21.700624 -49.921795 7.676427 8.113558 8.524705 12.647240 -45.110729 -5.057420 16.551065 2.193941 56.030731 19.487196 27.025509 48.206589 -7.276970 7.453271 -8.534408 -12.637552 36.556496 -18.422159 9.264439 4.155788 71.253746 -1.393389 -8.972569 1.144154 2.995366 -3.061045 -8.010434 -1.280248 11.856561 27.600344 5.466489 4.516480 -22.262333 -5.699258 0.367315 
-4.622887 53.519848 -85.646095 1.559309 1.415911 3.965855 33.544426 -5.140349 -3.711018 -36.594177 6.734919 -0.843055 -13.347502 -5.074090 -5.568335 25.130686 10.137267 -10.601299 4.570630 -11.838743 2.144267 -66.205505 -27.255430 21.865807 -49.848717 7.659370 8.084740 8.524705 12.647240 -44.768929 -5.057420 16.551065 2.193941 56.098915 20.002134 26.763748 48.091969 -7.245332 7.406585 -8.534408 -12.637552 36.419777 -17.769156 9.138122 4.946171 70.874199 -1.441904 -8.939680 -0.581306 2.694443 -3.044347 -6.473822 -1.376869 12.301493 26.909967 5.483087 4.448350 -22.092520 -5.339172 0.521020 
-4.607883 53.534851 -85.288361 1.384238 1.423487 3.746477 33.594395 -5.337597 -3.195705 -36.429737 6.413449 -0.649626 -14.295431 -4.892133 -5.710559 25.940342 10.114617 -10.860864 4.570630 -11.838743 2.144267 -66.039429 -27.478537 22.186058 -49.880928 7.672000 8.102035 8.524705 12.647240 -44.427132 -5.057420 16.551065 2.193941 56.366661 20.526838 26.090935 47.811398 -7.170545 7.294289 -8.534408 -12.637552 35.882675 -18.250668 9.061836 5.026651 70.688644 -1.461388 -8.939383 -2.000038 2.512940 -3.034607 -5.520176 -1.397015 12.501268 26.426653 5.515170 4.363890 -22.361437 -5.111545 0.571018 
-4.623221 53.540852 -85.056976 1.502014 1.457904 3.262036 33.495434 -5.717391 -2.607059 -36.592358 6.218612 -0.439881 -13.284902 -5.057421 -5.867875 25.253382 10.672526 -11.067252 4.570630 -11.838743 2.144267 -65.868919 -27.134613 22.489491 -50.225842 7.754177 8.249860 8.524705 12.647240 -44.222061 -5.057420 16.551065 2.193941 56.619385 20.954456 25.642433 47.625175 -7.123841 7.218643 -8.534408 -12.637552 35.618999 -19.241039 9.126810 5.378910 70.484238 -1.480764 -8.918365 -3.374972 2.131809 -3.016958 -5.239232 -1.474774 12.509222 26.061554 5.540999 4.355523 -22.202330 -4.818229 0.693336 
-4.649226 53.525185 -84.841934 1.766250 1.421891 2.681847 33.242100 -6.041864 -2.051311 -36.548260 6.000897 -0.231323 -12.882982 -4.968166 -5.999984 24.766237 10.780794 -11.270963 4.570630 -11.838743 2.144267 -65.605522 -27.235178 22.679436 -50.506603 7.809088 8.351495 8.524705 12.647240 -43.997444 -5.057420 16.551065 2.193941 56.815132 21.423969 25.484499 47.749386 -7.154845 7.266186 -8.534408 -12.637552 35.804550 -20.485081 9.324365 5.751886 70.348083 -1.509972 -8.908891 -4.757285 1.587664 -3.024963 -5.295902 -1.455198 12.544924 25.922405 5.540596 4.323741 -21.963417 -4.446176 0.855231 
-4.657227 53.462837 -84.503540 1.119715 1.636034 4.739999 34.012520 -5.316119 -3.341737 -36.162586 5.803400 -0.600507 -13.309991 -4.946935 -6.022877 24.909119 10.771030 -11.345706 4.570630 -11.838743 2.144267 -65.516678 -27.747936 22.635220 -50.486069 7.807391 8.350494 8.524705 12.647240 -44.114639 -5.057420 16.551065 2.193941 56.919830 22.034891 25.443356 47.843422 -7.184619 7.311886 -8.534408 -12.637552 35.999859 -21.028290 8.297460 3.696142 70.055481 -1.529998 -8.891264 -6.023587 1.128523 -3.062474 -3.675792 -1.493721 12.198483 25.906076 5.526849 4.289968 -23.737463 -5.207694 0.272438 
-4.663228 53.492172 -84.302834 1.912590 1.452770 2.725818 33.070969 -6.060854 -1.855489 -36.062550 5.753346 -0.132269 -13.400519 -5.074896 -5.964911 25.000326 10.862611 -11.263652 4.570630 -11.838743 2.144267 -65.528915 -27.620220 22.714079 -50.747597 7.864878 8.450912 8.524705 12.647240 -43.880260 -5.057420 16.551065 2.193941 56.782761 22.247046 25.753214 47.977581 -7.212831 7.350324 -8.534408 -12.637552 36.214703 -22.550503 9.038845 5.187580 69.792084 -1.559206 -8.881861 -7.970060 0.367521 -3.134675 -4.817975 -1.348033 12.871268 26.023901 5.535712 4.312067 -22.768103 -4.473758 0.737742 
-4.682232 53.413494 -84.063797 1.344113 1.574828 4.481627 34.117172 -5.435875 -3.021804 -36.625454 5.890618 -0.536060 -13.141741 -5.225070 -5.890593 24.878056 10.908831 -11.129210 4.570630 -11.838743 2.144267 -65.685135 -27.231390 22.594460 -50.842335 7.888371 8.490355 8.524705 12.647240 -43.714245 -5.057420 16.551065 2.193941 56.498100 22.143728 26.108730 48.091969 -7.245332 7.406585 -8.534408 -12.637552 36.439312 -23.378651 8.222567 3.448262 69.363525 -1.617597 -8.850600 -9.235839 -0.258311 -3.214681 -3.414765 -1.327738 12.484065 25.936228 5.522649 4.311131 -24.188015 -5.043614 0.242149 
-4.830926 53.353146 -84.007111 1.829761 1.249912 4.905829 34.495110 -5.445338 -3.218946 -37.537910 6.311558 -0.673469 -13.297459 -5.235631 -5.895402 24.982861 10.767196 -11.167105 4.570630 -11.838743 2.144267 -65.769447 -27.305613 22.470415 -50.811104 7.882617 8.480139 8.524705 12.647240 -43.880260 -5.057420 16.551065 2.193941 56.404423 22.246130 26.104481 48.185356 -7.267353 7.435741 -8.534408 -12.637552 36.419777 -25.712017 8.613257 2.932910 68.983810 -1.665550 -8.815653 -9.780799 -0.751517 -3.296846 -3.665240 -0.840797 12.527222 25.801670 5.549629 4.285971 -24.470678 -5.369721 0.072884 
-4.716238 53.442497 -83.594360 2.116056 1.291260 3.399673 33.557068 -5.891158 -1.969026 -37.117020 5.966172 -0.253778 -13.231255 -5.337819 -5.897141 25.243557 10.819157 -11.175201 4.570630 -11.838743 2.144267 -65.749512 -27.140308 22.778101 -50.977962 7.915342 8.541825 8.524705 12.647240 -43.645882 -5.057420 16.551065 2.193941 56.275261 22.076435 26.417931 48.632278 -7.381000 7.615141 -8.534408 -12.637552 36.849468 -25.974415 8.681020 3.774695 67.892235 -1.812626 -8.743029 -11.171553 -0.689163 -3.258836 -3.641723 -1.093562 12.787890 25.623251 5.542031 4.267745 -23.813568 -4.590925 0.494251 
-4.685231 53.418163 -83.210625 1.781496 1.539277 4.845265 33.653160 -5.394601 -2.978962 -37.008339 5.888926 -0.565578 -12.600531 -5.463530 -5.961658 24.863224 10.958772 -11.290355 4.570630 -11.838743 2.144267 -65.720848 -26.828728 22.837267 -50.977768 7.915955 8.551570 8.524705 12.647240 -43.382214 -5.057420 16.551065 2.193941 56.147263 21.926237 26.868109 48.986233 -7.469772 7.759532 -8.534408 -12.637552 37.367043 -26.356703 7.607278 2.235634 66.848846 -1.948952 -8.674124 -12.097638 -0.845762 -3.289072 -2.427448 -1.239390 12.503250 25.583260 5.542061 4.264251 -25.174288 -4.973126 0.080042 
-4.736575 53.360485 -83.034584 1.957084 1.384025 4.669270 33.854824 -5.509556 -2.706031 -37.292828 5.887482 -0.495047 -12.501227 -5.438679 -6.085621 24.352125 11.055938 -11.525873 4.570630 -11.838743 2.144267 -65.589142 -26.962130 22.846325 -50.789520 7.874862 8.470248 8.524705 12.647240 -43.245495 -5.057420 16.551065 2.193941 56.269341 22.321209 26.811401 48.933781 -7.453651 7.730907 -8.534408 -12.637552 37.347515 -27.493361 7.781063 2.043539 65.755844 -2.066819 -8.606686 -12.644003 -1.030132 -3.317571 -2.229155 -1.044664 12.650774 25.281359 5.556146 4.210873 -25.119802 -5.137264 0.031192 
-4.827593 53.302139 -82.910225 2.336474 1.262388 4.743071 34.092537 -5.696640 -2.646658 -37.629425 6.025300 -0.481202 -12.891124 -5.531325 -6.141215 24.392338 11.165499 -11.681274 4.570630 -11.838743 2.144267 -65.503075 -27.191145 22.974052 -50.758289 7.869074 8.460053 8.524705 12.647240 -43.186901 -5.057420 16.551065 2.193941 56.285007 22.594261 26.994652 49.183716 -7.515718 7.837280 -8.534408 -12.637552 37.650249 -29.002165 7.880374 1.651190 64.585304 -2.212799 -8.509538 -12.819389 -1.108146 -3.339508 -2.334997 -0.821785 12.905909 25.065428 5.584452 4.197351 -25.282272 -5.350612 -0.094786 
-4.766914 53.351818 -82.528824 2.349000 1.212155 3.802972 33.605888 -5.989702 -1.746649 -36.847050 5.724621 -0.146260 -13.258607 -5.471447 -6.194359 24.446903 11.192428 -11.788162 4.570630 -11.838743 2.144267 -65.311623 -27.493605 23.263796 -50.915497 7.903978 8.519977 8.524705 12.647240 -42.893929 -5.057420 16.551065 2.193941 56.356270 23.138418 27.251898 49.340385 -7.556127 7.904135 -8.534408 -12.637552 38.236183 -29.126776 8.036010 1.824378 63.072227 -2.406801 -8.391564 -13.541115 -0.993417 -3.295587 -1.869380 -0.840336 13.350026 24.784262 5.592891 4.144380 -25.133488 -4.990270 0.104792 
-4.745577 53.350483 -82.214767 2.279875 1.155468 4.111828 33.751976 -5.855818 -1.693116 -36.508835 5.468786 -0.100498 -13.857571 -5.333033 -6.247754 24.689583 11.200416 -11.893888 4.570630 -11.838743 2.144267 -65.086174 -27.895432 23.527332 -50.957428 7.913816 8.540737 8.524705 12.647240 -42.776745 -5.057420 16.551065 2.193941 56.589535 23.889771 27.035276 49.287895 -7.540385 7.876549 -8.534408 -12.637552 38.314312 -29.587622 7.724094 0.985623 61.489674 -2.592077 -8.267632 -14.167093 -1.244425 -3.342565 -1.069656 -0.775237 13.311352 24.423929 5.595496 4.084320 -25.536757 -5.246136 -0.084795 
-4.739243 53.306808 -81.930382 2.140132 1.307995 5.257784 34.206150 -5.562233 -2.444611 -36.912632 5.521748 -0.359320 -13.682772 -5.382796 -6.300176 24.650259 11.107544 -12.018059 4.570630 -11.838743 2.144267 -65.091408 -27.650696 23.504004 -50.946732 7.909669 8.530223 8.524705 12.647240 -42.923229 -5.057420 16.551065 2.193941 56.470448 23.729368 27.300138 49.496315 -7.589092 7.954182 -8.534408 -12.637552 38.460796 -30.072094 6.883157 -0.372379 59.730434 -2.768759 -8.119983 -14.532030 -1.881463 -3.514783 0.011844 -0.894443 13.126865 23.806532 5.622274 4.023584 -26.308798 -5.581959 -0.410415 
-4.714571 53.333817 -81.691330 2.346310 1.301410 4.725376 33.980503 -5.770500 -2.158141 -37.444103 5.623610 -0.294017 -12.918619 -5.460408 -6.165817 24.339956 11.085647 -11.744041 4.570630 -11.838743 2.144267 -65.157127 -27.080391 23.474707 -50.862675 7.890550 8.501166 8.524705 12.647240 -43.020885 -5.057420 16.551065 2.193941 56.220894 23.037476 27.969027 49.872265 -7.680177 8.109122 -8.534408 -12.637552 38.792828 -30.573521 6.874096 -0.586635 57.871517 -2.983626 -7.970058 -14.802480 -2.080703 -3.563429 0.248700 -1.060602 13.055748 23.260506 5.638091 3.977438 -25.766785 -5.280231 -0.165952 
-4.699901 53.345486 -81.394615 2.334608 1.299052 5.282124 33.929749 -5.494905 -2.536661 -37.592674 5.673891 -0.439624 -12.756234 -5.519845 -6.035541 24.570187 11.066750 -11.457145 4.570630 -11.838743 2.144267 -65.166122 -26.727909 23.457211 -50.800217 7.879047 8.479395 8.524705 12.647240 -43.186901 -5.057420 16.551065 2.193941 56.056713 22.781454 28.570227 50.164631 -7.747555 8.227528 -8.534408 -12.637552 39.242043 -30.962112 6.434371 -1.679838 55.923912 -3.178350 -7.786504 -14.511633 -1.671937 -3.457292 1.043948 -1.015153 13.241044 22.733480 5.661679 3.885809 -26.334867 -5.667299 -0.434390 
